<?xml version="1.0" encoding="utf-8"?>
<svg width="640" height="360" viewBox="0 0 640 360" xmlns="http://www.w3.org/2000/svg" font-family="'Segoe UI', Arial, sans-serif">
  <rect width="640" height="360" fill="#ffffff" stroke="#d1d5db" stroke-width="1" rx="24" />
  <rect x="24" y="24" width="168" height="312" fill="#f9fafb" stroke="#cbd5f5" rx="18"/>
  <text x="40" y="56" fill="#111827" font-size="14" font-weight="600">Sidebar</text>
  <text x="40" y="78" fill="#6b7280" font-size="11">Selection summary</text>
  <rect x="40" y="92" width="136" height="86" fill="#ffffff" stroke="#cbd5f5" rx="12" stroke-dasharray="4 4"/>
  <text x="50" y="116" fill="#6b7280" font-size="10">Limits</text>
  <rect x="40" y="188" width="136" height="32" fill="#ffffff" stroke="#cbd5f5" rx="10" stroke-dasharray="4 4"/>
  <text x="50" y="208" fill="#6b7280" font-size="10">Preset button</text>
  <rect x="40" y="230" width="136" height="32" fill="#ffffff" stroke="#cbd5f5" rx="10" stroke-dasharray="4 4"/>
  <text x="50" y="250" fill="#6b7280" font-size="10">Preset button</text>
  <rect x="40" y="272" width="136" height="32" fill="#ffffff" stroke="#cbd5f5" rx="10" stroke-dasharray="4 4"/>
  <text x="50" y="292" fill="#6b7280" font-size="10">Preset button</text>

  <rect x="212" y="24" width="404" height="312" fill="#f8f9ff" stroke="#cbd5f5" rx="18"/>
  <text x="228" y="56" fill="#6b7280" font-size="10">Toolbar</text>
  <rect x="228" y="64" width="96" height="32" fill="#ffffff" stroke="#94a3b8" rx="10" stroke-dasharray="6 4"/>
  <text x="240" y="84" fill="#6b7280" font-size="10">Mode chip</text>
  <rect x="332" y="64" width="76" height="32" fill="#ffffff" stroke="#94a3b8" rx="10" stroke-dasharray="6 4"/>
  <text x="344" y="84" fill="#6b7280" font-size="10">Today</text>
  <rect x="412" y="64" width="76" height="32" fill="#ffffff" stroke="#94a3b8" rx="10" stroke-dasharray="6 4"/>
  <text x="424" y="84" fill="#6b7280" font-size="10">Clear</text>
  <rect x="492" y="64" width="96" height="32" fill="#ffffff" stroke="#94a3b8" rx="10" stroke-dasharray="6 4"/>
  <text x="504" y="84" fill="#6b7280" font-size="10">Apply</text>

  <text x="228" y="120" fill="#6b7280" font-size="10">Range inputs</text>
  <rect x="228" y="128" width="144" height="38" fill="#ffffff" stroke="#94a3b8" rx="10" stroke-dasharray="4 4"/>
  <rect x="380" y="128" width="144" height="38" fill="#ffffff" stroke="#94a3b8" rx="10" stroke-dasharray="4 4"/>

  <text x="228" y="188" fill="#6b7280" font-size="10">Calendar grid</text>
  <rect x="228" y="196" width="368" height="116" fill="#ffffff" stroke="#94a3b8" rx="12" stroke-dasharray="4 4"/>

  <text x="228" y="326" fill="#6b7280" font-size="10">Range chips</text>
  <rect x="228" y="306" width="180" height="26" fill="#ffffff" stroke="#94a3b8" rx="12" stroke-dasharray="4 4"/>
  <rect x="416" y="306" width="88" height="26" fill="#ffffff" stroke="#94a3b8" rx="12" stroke-dasharray="4 4"/>
</svg>
