<?xml version="1.0" encoding="utf-8"?>
<svg width="720" height="520" viewBox="0 0 720 520" xmlns="http://www.w3.org/2000/svg" font-family="'Segoe UI', Arial, sans-serif">
  <defs>
    <filter id="shadow" x="-10%" y="-10%" width="120%" height="120%">
      <feDropShadow dx="0" dy="24" stdDeviation="28" flood-color="#0f172a" flood-opacity="0.12" />
    </filter>
  </defs>
  <rect width="720" height="520" fill="#eef2ff"/>
  <g filter="url(#shadow)">
    <rect x="32" y="32" width="656" height="456" rx="28" fill="#f8f9ff" stroke="#e5e7f5" stroke-width="1"/>
  </g>
  <rect x="60" y="72" width="204" height="360" rx="22" fill="#ffffff" stroke="#d4d8eb" stroke-width="1"/>
  <text x="80" y="108" fill="#111827" font-size="18" font-weight="600">Date Range</text>
  <text x="80" y="134" fill="#4b5563" font-size="13">Dec 01, 2015 – Dec 31, 2015</text>
  <text x="80" y="152" fill="#6b7280" font-size="12">Multiple ranges allowed</text>

  <rect x="80" y="174" width="164" height="120" rx="18" fill="#f9f9ff" stroke="#dee1f7" stroke-width="1"/>
  <text x="96" y="200" fill="#6b7280" font-size="11" font-weight="600" letter-spacing="0.08em">LIMITS</text>
  <rect x="96" y="214" width="132" height="38" rx="14" fill="#eef2ff" />
  <text x="108" y="234" fill="#4b5563" font-size="11" font-weight="600" letter-spacing="0.06em">MIN DATE</text>
  <text x="108" y="248" fill="#1f2937" font-size="13">01/01/2013</text>
  <rect x="96" y="258" width="132" height="38" rx="14" fill="#4f46e5" />
  <text x="108" y="278" fill="#eef2ff" font-size="11" font-weight="600" letter-spacing="0.06em">MAX DATE</text>
  <text x="108" y="292" fill="#ffffff" font-size="13">12/31/2015</text>

  <text x="80" y="324" fill="#6b7280" font-size="12" font-weight="600" letter-spacing="0.08em">PRESETS</text>
  <rect x="80" y="334" width="164" height="42" rx="14" fill="#ffffff" stroke="#d6daf2" stroke-width="1"/>
  <text x="96" y="358" fill="#1f2937" font-size="13">Today</text>
  <rect x="80" y="382" width="164" height="42" rx="14" fill="#ffffff" stroke="#d6daf2" stroke-width="1"/>
  <text x="96" y="406" fill="#1f2937" font-size="13">Yesterday</text>
  <rect x="80" y="430" width="164" height="42" rx="14" fill="#ffffff" stroke="#d6daf2" stroke-width="1"/>
  <text x="96" y="454" fill="#1f2937" font-size="13">Last Week</text>

  <rect x="280" y="72" width="378" height="360" rx="22" fill="#ffffff" stroke="#e2e5f5" stroke-width="1"/>
  <rect x="300" y="96" width="110" height="36" rx="12" fill="#4f46e5" />
  <text x="338" y="118" text-anchor="middle" fill="#ffffff" font-size="14" font-weight="600">Date Range</text>
  <rect x="420" y="96" width="74" height="36" rx="12" fill="#e0e7ff" />
  <text x="457" y="118" text-anchor="middle" fill="#312e81" font-size="13" font-weight="600">Today</text>
  <rect x="502" y="96" width="74" height="36" rx="12" fill="#ffffff" stroke="#c7cbe7" stroke-width="1" />
  <text x="539" y="118" text-anchor="middle" fill="#3730a3" font-size="13" font-weight="600">Clear</text>
  <rect x="584" y="96" width="74" height="36" rx="12" fill="#6366f1" />
  <text x="621" y="118" text-anchor="middle" fill="#ffffff" font-size="13" font-weight="600">Apply</text>

  <text x="300" y="154" fill="#4b5563" font-size="12" font-weight="600">Start date</text>
  <rect x="300" y="164" width="150" height="40" rx="12" fill="#ffffff" stroke="#c7cbe7" stroke-width="1"/>
  <text x="308" y="190" fill="#111827" font-size="14">12/01/2015</text>
  <text x="460" y="188" fill="#6366f1" font-size="20" font-weight="600">→</text>
  <text x="492" y="154" fill="#4b5563" font-size="12" font-weight="600">End date</text>
  <rect x="492" y="164" width="150" height="40" rx="12" fill="#ffffff" stroke="#6366f1" stroke-width="2"/>
  <text x="500" y="190" fill="#111827" font-size="14">12/31/2015</text>

  <rect x="300" y="220" width="340" height="196" rx="20" fill="#f9f9ff" stroke="#e0e4f6" stroke-width="1"/>
  <text x="470" y="246" text-anchor="middle" fill="#1f2937" font-size="16" font-weight="600">December 2015</text>
  <text x="320" y="272" fill="#6b7280" font-size="11" font-weight="600">Su</text>
  <text x="360" y="272" fill="#6b7280" font-size="11" font-weight="600">Mo</text>
  <text x="400" y="272" fill="#6b7280" font-size="11" font-weight="600">Tu</text>
  <text x="440" y="272" fill="#6b7280" font-size="11" font-weight="600">We</text>
  <text x="480" y="272" fill="#6b7280" font-size="11" font-weight="600">Th</text>
  <text x="520" y="272" fill="#6b7280" font-size="11" font-weight="600">Fr</text>
  <text x="560" y="272" fill="#6b7280" font-size="11" font-weight="600">Sa</text>

  <g fill="#1f2937" font-size="13">
    <text x="320" y="304">29</text>
    <text x="360" y="304">30</text>
    <text x="400" y="304">1</text>
    <text x="440" y="304">2</text>
    <text x="480" y="304">3</text>
    <text x="520" y="304">4</text>
    <text x="560" y="304">5</text>
    <text x="320" y="332">6</text>
    <text x="360" y="332">7</text>
    <text x="400" y="332">8</text>
    <text x="440" y="332">9</text>
    <text x="480" y="332">10</text>
    <text x="520" y="332">11</text>
    <text x="560" y="332">12</text>
    <text x="320" y="360">13</text>
    <text x="360" y="360">14</text>
    <text x="400" y="360">15</text>
    <text x="440" y="360">16</text>
    <text x="480" y="360">17</text>
    <text x="520" y="360">18</text>
    <text x="560" y="360">19</text>
    <text x="320" y="388">20</text>
    <text x="360" y="388">21</text>
    <text x="400" y="388">22</text>
    <text x="440" y="388">23</text>
    <text x="480" y="388">24</text>
    <text x="520" y="388">25</text>
    <text x="560" y="388">26</text>
    <text x="320" y="416">27</text>
    <text x="360" y="416">28</text>
    <text x="400" y="416">29</text>
    <text x="440" y="416">30</text>
    <text x="480" y="416" fill="#ffffff">31</text>
    <text x="520" y="416" fill="#1f2937">1</text>
    <text x="560" y="416" fill="#1f2937">2</text>
  </g>
  <circle cx="480" cy="408" r="22" fill="#6366f1" opacity="0.18" />
  <circle cx="480" cy="408" r="16" fill="#6366f1" opacity="0.35" />
  <circle cx="480" cy="408" r="12" fill="#6366f1" />
  <text x="472" y="412" fill="#ffffff" font-size="13">31</text>

  <rect x="300" y="428" width="212" height="36" rx="18" fill="#e0e7ff" />
  <text x="312" y="450" fill="#312e81" font-size="12">Oct 01 – Oct 07, 2015</text>
  <rect x="520" y="428" width="120" height="36" rx="18" fill="#c7d2fe" />
  <text x="532" y="450" fill="#312e81" font-size="12">Add range</text>
</svg>
