<?xml version="1.0" encoding="utf-8" ?>
<svg baseProfile="full" height="520" version="1.1" width="720" xmlns="http://www.w3.org/2000/svg" xmlns:ev="http://www.w3.org/2001/xml-events" xmlns:xlink="http://www.w3.org/1999/xlink"><defs /><rect fill="#ffffff" height="456" rx="24" ry="24" stroke="#e0e3e8" stroke-width="1" width="656" x="32" y="32" /><text fill="#1b1b1f" font-family="&quot;Segoe UI&quot;, Arial" font-size="22" font-weight="600" x="56" y="68">Range Selection</text><text fill="#4b5563" font-family="&quot;Segoe UI&quot;, Arial" font-size="14" x="56" y="96">Anchor + hover shows pending span before confirmation</text><text fill="#1b1b1f" font-family="&quot;Segoe UI&quot;, Arial" font-size="24" x="64" y="74">‹</text><text fill="#1b1b1f" font-family="&quot;Segoe UI&quot;, Arial" font-size="24" x="632" y="74">›</text><text fill="#1b1b1f" font-family="&quot;Segoe UI&quot;, Arial" font-size="18" font-weight="600" text-anchor="middle" x="360.0" y="74">April 2024</text><text fill="#5f6b7c" font-family="&quot;Segoe UI&quot;, Arial" font-size="14" font-weight="600" text-anchor="middle" x="96.0" y="116">S</text><text fill="#5f6b7c" font-family="&quot;Segoe UI&quot;, Arial" font-size="14" font-weight="600" text-anchor="middle" x="184.0" y="116">M</text><text fill="#5f6b7c" font-family="&quot;Segoe UI&quot;, Arial" font-size="14" font-weight="600" text-anchor="middle" x="272.0" y="116">T</text><text fill="#5f6b7c" font-family="&quot;Segoe UI&quot;, Arial" font-size="14" font-weight="600" text-anchor="middle" x="360.0" y="116">W</text><text fill="#5f6b7c" font-family="&quot;Segoe UI&quot;, Arial" font-size="14" font-weight="600" text-anchor="middle" x="448.0" y="116">T</text><text fill="#5f6b7c" font-family="&quot;Segoe UI&quot;, Arial" font-size="14" font-weight="600" text-anchor="middle" x="536.0" y="116">F</text><text fill="#5f6b7c" font-family="&quot;Segoe UI&quot;, Arial" font-size="14" font-weight="600" text-anchor="middle" x="624.0" y="116">S</text><rect fill="#e8f1ff" height="56" rx="14" ry="14" stroke="none" width="88.0" x="52.0" y="132" /><text fill="#2e7cf6" font-family="&quot;Segoe UI&quot;, Arial" font-size="16" font-weight="400" text-anchor="middle" x="96.0" y="165.0">31</text><rect fill="#ffffff" height="56" rx="14" ry="14" stroke="none" width="88.0" x="140.0" y="132" /><text fill="#1b1b1f" font-family="&quot;Segoe UI&quot;, Arial" font-size="16" font-weight="400" text-anchor="middle" x="184.0" y="165.0">1</text><rect fill="#ffffff" height="56" rx="14" ry="14" stroke="none" width="88.0" x="228.0" y="132" /><text fill="#1b1b1f" font-family="&quot;Segoe UI&quot;, Arial" font-size="16" font-weight="400" text-anchor="middle" x="272.0" y="165.0">2</text><rect fill="#ffffff" height="56" rx="14" ry="14" stroke="none" width="88.0" x="316.0" y="132" /><text fill="#1b1b1f" font-family="&quot;Segoe UI&quot;, Arial" font-size="16" font-weight="400" text-anchor="middle" x="360.0" y="165.0">3</text><rect fill="#ffffff" height="56" rx="14" ry="14" stroke="none" width="88.0" x="404.0" y="132" /><text fill="#1b1b1f" font-family="&quot;Segoe UI&quot;, Arial" font-size="16" font-weight="400" text-anchor="middle" x="448.0" y="165.0">4</text><rect fill="#ffffff" height="56" rx="14" ry="14" stroke="none" width="88.0" x="492.0" y="132" /><text fill="#1b1b1f" font-family="&quot;Segoe UI&quot;, Arial" font-size="16" font-weight="400" text-anchor="middle" x="536.0" y="165.0">5</text><rect fill="#e8f1ff" height="56" rx="14" ry="14" stroke="none" width="88.0" x="580.0" y="132" /><text fill="#2e7cf6" font-family="&quot;Segoe UI&quot;, Arial" font-size="16" font-weight="400" text-anchor="middle" x="624.0" y="165.0">6</text><rect fill="#e8f1ff" height="56" rx="14" ry="14" stroke="none" width="88.0" x="52.0" y="188" /><text fill="#2e7cf6" font-family="&quot;Segoe UI&quot;, Arial" font-size="16" font-weight="400" text-anchor="middle" x="96.0" y="221.0">7</text><rect fill="#2e7cf6" height="56" rx="14" ry="14" stroke="none" width="88.0" x="140.0" y="188" /><rect fill="none" height="48" rx="12" ry="12" stroke="#2e7cf6" stroke-width="2" width="80.0" x="144.0" y="192" /><text fill="#ffffff" font-family="&quot;Segoe UI&quot;, Arial" font-size="16" font-weight="400" text-anchor="middle" x="184.0" y="221.0">8</text><rect fill="#d9e7ff" height="56" rx="14" ry="14" stroke="none" width="88.0" x="228.0" y="188" /><text fill="#1b1b1f" font-family="&quot;Segoe UI&quot;, Arial" font-size="16" font-weight="400" text-anchor="middle" x="272.0" y="221.0">9</text><rect fill="#d9e7ff" height="56" rx="14" ry="14" stroke="none" width="88.0" x="316.0" y="188" /><text fill="#1b1b1f" font-family="&quot;Segoe UI&quot;, Arial" font-size="16" font-weight="400" text-anchor="middle" x="360.0" y="221.0">10</text><rect fill="#d9e7ff" height="56" rx="14" ry="14" stroke="none" width="88.0" x="404.0" y="188" /><text fill="#1b1b1f" font-family="&quot;Segoe UI&quot;, Arial" font-size="16" font-weight="400" text-anchor="middle" x="448.0" y="221.0">11</text><rect fill="#d9e7ff" height="56" rx="14" ry="14" stroke="none" width="88.0" x="492.0" y="188" /><text fill="#1b1b1f" font-family="&quot;Segoe UI&quot;, Arial" font-size="16" font-weight="400" text-anchor="middle" x="536.0" y="221.0">12</text><rect fill="#d9e7ff" height="56" rx="14" ry="14" stroke="none" width="88.0" x="580.0" y="188" /><text fill="#2e7cf6" font-family="&quot;Segoe UI&quot;, Arial" font-size="16" font-weight="400" text-anchor="middle" x="624.0" y="221.0">13</text><rect fill="#d9e7ff" height="56" rx="14" ry="14" stroke="none" width="88.0" x="52.0" y="244" /><text fill="#2e7cf6" font-family="&quot;Segoe UI&quot;, Arial" font-size="16" font-weight="400" text-anchor="middle" x="96.0" y="277.0">14</text><rect fill="#d9e7ff" height="56" rx="14" ry="14" stroke="none" width="88.0" x="140.0" y="244" /><text fill="#1b1b1f" font-family="&quot;Segoe UI&quot;, Arial" font-size="16" font-weight="400" text-anchor="middle" x="184.0" y="277.0">15</text><rect fill="#d9e7ff" height="56" rx="14" ry="14" stroke="none" width="88.0" x="228.0" y="244" /><text fill="#1b1b1f" font-family="&quot;Segoe UI&quot;, Arial" font-size="16" font-weight="400" text-anchor="middle" x="272.0" y="277.0">16</text><rect fill="#d9e7ff" height="56" rx="14" ry="14" stroke="none" width="88.0" x="316.0" y="244" /><text fill="#1b1b1f" font-family="&quot;Segoe UI&quot;, Arial" font-size="16" font-weight="400" text-anchor="middle" x="360.0" y="277.0">17</text><rect fill="#2e7cf6" height="56" rx="14" ry="14" stroke="none" width="88.0" x="404.0" y="244" /><rect fill="none" height="56" rx="14" ry="14" stroke="#2e7cf6" stroke-dasharray="4,4" width="88.0" x="404.0" y="244" /><text fill="#ffffff" font-family="&quot;Segoe UI&quot;, Arial" font-size="16" font-weight="400" text-anchor="middle" x="448.0" y="277.0">18</text><rect fill="#ffffff" height="56" rx="14" ry="14" stroke="none" width="88.0" x="492.0" y="244" /><text fill="#1b1b1f" font-family="&quot;Segoe UI&quot;, Arial" font-size="16" font-weight="400" text-anchor="middle" x="536.0" y="277.0">19</text><rect fill="#e8f1ff" height="56" rx="14" ry="14" stroke="none" width="88.0" x="580.0" y="244" /><text fill="#2e7cf6" font-family="&quot;Segoe UI&quot;, Arial" font-size="16" font-weight="400" text-anchor="middle" x="624.0" y="277.0">20</text><rect fill="#e8f1ff" height="56" rx="14" ry="14" stroke="none" width="88.0" x="52.0" y="300" /><text fill="#2e7cf6" font-family="&quot;Segoe UI&quot;, Arial" font-size="16" font-weight="400" text-anchor="middle" x="96.0" y="333.0">21</text><rect fill="#ffffff" height="56" rx="14" ry="14" stroke="none" width="88.0" x="140.0" y="300" /><text fill="#1b1b1f" font-family="&quot;Segoe UI&quot;, Arial" font-size="16" font-weight="400" text-anchor="middle" x="184.0" y="333.0">22</text><rect fill="#ffffff" height="56" rx="14" ry="14" stroke="none" width="88.0" x="228.0" y="300" /><text fill="#1b1b1f" font-family="&quot;Segoe UI&quot;, Arial" font-size="16" font-weight="400" text-anchor="middle" x="272.0" y="333.0">23</text><rect fill="#ffffff" height="56" rx="14" ry="14" stroke="none" width="88.0" x="316.0" y="300" /><text fill="#1b1b1f" font-family="&quot;Segoe UI&quot;, Arial" font-size="16" font-weight="400" text-anchor="middle" x="360.0" y="333.0">24</text><rect fill="#ffffff" height="56" rx="14" ry="14" stroke="none" width="88.0" x="404.0" y="300" /><text fill="#1b1b1f" font-family="&quot;Segoe UI&quot;, Arial" font-size="16" font-weight="400" text-anchor="middle" x="448.0" y="333.0">25</text><rect fill="#ffffff" height="56" rx="14" ry="14" stroke="none" width="88.0" x="492.0" y="300" /><text fill="#1b1b1f" font-family="&quot;Segoe UI&quot;, Arial" font-size="16" font-weight="400" text-anchor="middle" x="536.0" y="333.0">26</text><rect fill="#e8f1ff" height="56" rx="14" ry="14" stroke="none" width="88.0" x="580.0" y="300" /><text fill="#2e7cf6" font-family="&quot;Segoe UI&quot;, Arial" font-size="16" font-weight="400" text-anchor="middle" x="624.0" y="333.0">27</text><rect fill="#e8f1ff" height="56" rx="14" ry="14" stroke="none" width="88.0" x="52.0" y="356" /><text fill="#2e7cf6" font-family="&quot;Segoe UI&quot;, Arial" font-size="16" font-weight="400" text-anchor="middle" x="96.0" y="389.0">28</text><rect fill="#ffffff" height="56" rx="14" ry="14" stroke="none" width="88.0" x="140.0" y="356" /><text fill="#1b1b1f" font-family="&quot;Segoe UI&quot;, Arial" font-size="16" font-weight="400" text-anchor="middle" x="184.0" y="389.0">29</text><rect fill="#ffffff" height="56" rx="14" ry="14" stroke="none" width="88.0" x="228.0" y="356" /><text fill="#1b1b1f" font-family="&quot;Segoe UI&quot;, Arial" font-size="16" font-weight="400" text-anchor="middle" x="272.0" y="389.0">30</text><rect fill="#ffffff" height="56" rx="14" ry="14" stroke="none" width="88.0" x="316.0" y="356" /><text fill="#9ca3af" font-family="&quot;Segoe UI&quot;, Arial" font-size="16" font-weight="400" text-anchor="middle" x="360.0" y="389.0">1</text><rect fill="#ffffff" height="56" rx="14" ry="14" stroke="none" width="88.0" x="404.0" y="356" /><text fill="#9ca3af" font-family="&quot;Segoe UI&quot;, Arial" font-size="16" font-weight="400" text-anchor="middle" x="448.0" y="389.0">2</text><rect fill="#ffffff" height="56" rx="14" ry="14" stroke="none" width="88.0" x="492.0" y="356" /><text fill="#9ca3af" font-family="&quot;Segoe UI&quot;, Arial" font-size="16" font-weight="400" text-anchor="middle" x="536.0" y="389.0">3</text><rect fill="#e8f1ff" height="56" rx="14" ry="14" stroke="none" width="88.0" x="580.0" y="356" /><text fill="#2e7cf6" font-family="&quot;Segoe UI&quot;, Arial" font-size="16" font-weight="400" text-anchor="middle" x="624.0" y="389.0">4</text><text fill="#4b5563" font-family="&quot;Segoe UI&quot;, Arial" font-size="15" x="56" y="464">Drag or shift-click builds a preview band until the end date is committed.</text></svg>