<?xml version="1.0" encoding="utf-8" ?>
<svg baseProfile="full" height="520" version="1.1" width="720" xmlns="http://www.w3.org/2000/svg" xmlns:ev="http://www.w3.org/2001/xml-events" xmlns:xlink="http://www.w3.org/1999/xlink"><defs /><rect fill="#ffffff" height="456" rx="24" ry="24" stroke="#e0e3e8" stroke-width="1" width="656" x="32" y="32" /><text fill="#1b1b1f" font-family="&quot;Segoe UI&quot;, Arial" font-size="22" font-weight="600" x="56" y="68">Canvas Layout</text><text fill="#4b5563" font-family="&quot;Segoe UI&quot;, Arial" font-size="14" x="56" y="96">Always-on calendar with presets, weekends, and holidays enabled</text><rect fill="#ffffff" height="36" rx="18" ry="18" stroke="#d0d7e3" stroke-width="1" width="126" x="56" y="100" /><text fill="#1b1b1f" font-family="&quot;Segoe UI&quot;, Arial" font-size="14" text-anchor="middle" x="119.0" y="124">Today</text><rect fill="#ffffff" height="36" rx="18" ry="18" stroke="#d0d7e3" stroke-width="1" width="126" x="194" y="100" /><text fill="#1b1b1f" font-family="&quot;Segoe UI&quot;, Arial" font-size="14" text-anchor="middle" x="257.0" y="124">Last 7 Days</text><rect fill="#2e7cf6" height="36" rx="18" ry="18" stroke="none" stroke-width="1" width="126" x="332" y="100" /><text fill="#ffffff" font-family="&quot;Segoe UI&quot;, Arial" font-size="14" text-anchor="middle" x="395.0" y="124">Month to Date</text><rect fill="#ffffff" height="36" rx="18" ry="18" stroke="#d0d7e3" stroke-width="1" width="126" x="470" y="100" /><text fill="#1b1b1f" font-family="&quot;Segoe UI&quot;, Arial" font-size="14" text-anchor="middle" x="533.0" y="124">Quarter to Date</text><text fill="#1b1b1f" font-family="&quot;Segoe UI&quot;, Arial" font-size="24" x="64" y="74">‹</text><text fill="#1b1b1f" font-family="&quot;Segoe UI&quot;, Arial" font-size="24" x="632" y="74">›</text><text fill="#1b1b1f" font-family="&quot;Segoe UI&quot;, Arial" font-size="18" font-weight="600" text-anchor="middle" x="360.0" y="74">June 2024</text><text fill="#5f6b7c" font-family="&quot;Segoe UI&quot;, Arial" font-size="14" font-weight="600" text-anchor="middle" x="96.0" y="116">S</text><text fill="#5f6b7c" font-family="&quot;Segoe UI&quot;, Arial" font-size="14" font-weight="600" text-anchor="middle" x="184.0" y="116">M</text><text fill="#5f6b7c" font-family="&quot;Segoe UI&quot;, Arial" font-size="14" font-weight="600" text-anchor="middle" x="272.0" y="116">T</text><text fill="#5f6b7c" font-family="&quot;Segoe UI&quot;, Arial" font-size="14" font-weight="600" text-anchor="middle" x="360.0" y="116">W</text><text fill="#5f6b7c" font-family="&quot;Segoe UI&quot;, Arial" font-size="14" font-weight="600" text-anchor="middle" x="448.0" y="116">T</text><text fill="#5f6b7c" font-family="&quot;Segoe UI&quot;, Arial" font-size="14" font-weight="600" text-anchor="middle" x="536.0" y="116">F</text><text fill="#5f6b7c" font-family="&quot;Segoe UI&quot;, Arial" font-size="14" font-weight="600" text-anchor="middle" x="624.0" y="116">S</text><rect fill="#e8f1ff" height="56" rx="14" ry="14" stroke="none" width="88.0" x="52.0" y="132" /><text fill="#2e7cf6" font-family="&quot;Segoe UI&quot;, Arial" font-size="16" font-weight="400" text-anchor="middle" x="96.0" y="165.0">26</text><rect fill="#ffffff" height="56" rx="14" ry="14" stroke="none" width="88.0" x="140.0" y="132" /><text fill="#9ca3af" font-family="&quot;Segoe UI&quot;, Arial" font-size="16" font-weight="400" text-anchor="middle" x="184.0" y="165.0">27</text><rect fill="#ffffff" height="56" rx="14" ry="14" stroke="none" width="88.0" x="228.0" y="132" /><text fill="#9ca3af" font-family="&quot;Segoe UI&quot;, Arial" font-size="16" font-weight="400" text-anchor="middle" x="272.0" y="165.0">28</text><rect fill="#ffffff" height="56" rx="14" ry="14" stroke="none" width="88.0" x="316.0" y="132" /><text fill="#9ca3af" font-family="&quot;Segoe UI&quot;, Arial" font-size="16" font-weight="400" text-anchor="middle" x="360.0" y="165.0">29</text><rect fill="#ffffff" height="56" rx="14" ry="14" stroke="none" width="88.0" x="404.0" y="132" /><text fill="#9ca3af" font-family="&quot;Segoe UI&quot;, Arial" font-size="16" font-weight="400" text-anchor="middle" x="448.0" y="165.0">30</text><rect fill="#ffffff" height="56" rx="14" ry="14" stroke="none" width="88.0" x="492.0" y="132" /><text fill="#9ca3af" font-family="&quot;Segoe UI&quot;, Arial" font-size="16" font-weight="400" text-anchor="middle" x="536.0" y="165.0">31</text><rect fill="#2e7cf6" height="56" rx="14" ry="14" stroke="none" width="88.0" x="580.0" y="132" /><text fill="#ffffff" font-family="&quot;Segoe UI&quot;, Arial" font-size="16" font-weight="400" text-anchor="middle" x="624.0" y="165.0">1</text><rect fill="#d9e7ff" height="56" rx="14" ry="14" stroke="none" width="88.0" x="52.0" y="188" /><text fill="#2e7cf6" font-family="&quot;Segoe UI&quot;, Arial" font-size="16" font-weight="400" text-anchor="middle" x="96.0" y="221.0">2</text><rect fill="#d9e7ff" height="56" rx="14" ry="14" stroke="none" width="88.0" x="140.0" y="188" /><text fill="#1b1b1f" font-family="&quot;Segoe UI&quot;, Arial" font-size="16" font-weight="400" text-anchor="middle" x="184.0" y="221.0">3</text><rect fill="#d9e7ff" height="56" rx="14" ry="14" stroke="none" width="88.0" x="228.0" y="188" /><text fill="#1b1b1f" font-family="&quot;Segoe UI&quot;, Arial" font-size="16" font-weight="400" text-anchor="middle" x="272.0" y="221.0">4</text><rect fill="#d9e7ff" height="56" rx="14" ry="14" stroke="none" width="88.0" x="316.0" y="188" /><text fill="#1b1b1f" font-family="&quot;Segoe UI&quot;, Arial" font-size="16" font-weight="400" text-anchor="middle" x="360.0" y="221.0">5</text><rect fill="#d9e7ff" height="56" rx="14" ry="14" stroke="none" width="88.0" x="404.0" y="188" /><text fill="#1b1b1f" font-family="&quot;Segoe UI&quot;, Arial" font-size="16" font-weight="400" text-anchor="middle" x="448.0" y="221.0">6</text><rect fill="#d9e7ff" height="56" rx="14" ry="14" stroke="none" width="88.0" x="492.0" y="188" /><text fill="#1b1b1f" font-family="&quot;Segoe UI&quot;, Arial" font-size="16" font-weight="400" text-anchor="middle" x="536.0" y="221.0">7</text><rect fill="#d9e7ff" height="56" rx="14" ry="14" stroke="none" width="88.0" x="580.0" y="188" /><text fill="#2e7cf6" font-family="&quot;Segoe UI&quot;, Arial" font-size="16" font-weight="400" text-anchor="middle" x="624.0" y="221.0">8</text><rect fill="#d9e7ff" height="56" rx="14" ry="14" stroke="none" width="88.0" x="52.0" y="244" /><text fill="#2e7cf6" font-family="&quot;Segoe UI&quot;, Arial" font-size="16" font-weight="400" text-anchor="middle" x="96.0" y="277.0">9</text><rect fill="#d9e7ff" height="56" rx="14" ry="14" stroke="none" width="88.0" x="140.0" y="244" /><text fill="#1b1b1f" font-family="&quot;Segoe UI&quot;, Arial" font-size="16" font-weight="400" text-anchor="middle" x="184.0" y="277.0">10</text><rect fill="#d9e7ff" height="56" rx="14" ry="14" stroke="none" width="88.0" x="228.0" y="244" /><text fill="#1b1b1f" font-family="&quot;Segoe UI&quot;, Arial" font-size="16" font-weight="400" text-anchor="middle" x="272.0" y="277.0">11</text><rect fill="#d9e7ff" height="56" rx="14" ry="14" stroke="none" width="88.0" x="316.0" y="244" /><text fill="#1b1b1f" font-family="&quot;Segoe UI&quot;, Arial" font-size="16" font-weight="400" text-anchor="middle" x="360.0" y="277.0">12</text><rect fill="#d9e7ff" height="56" rx="14" ry="14" stroke="none" width="88.0" x="404.0" y="244" /><text fill="#1b1b1f" font-family="&quot;Segoe UI&quot;, Arial" font-size="16" font-weight="400" text-anchor="middle" x="448.0" y="277.0">13</text><rect fill="#d9e7ff" height="56" rx="14" ry="14" stroke="none" width="88.0" x="492.0" y="244" /><text fill="#1b1b1f" font-family="&quot;Segoe UI&quot;, Arial" font-size="16" font-weight="400" text-anchor="middle" x="536.0" y="277.0">14</text><rect fill="#d9e7ff" height="56" rx="14" ry="14" stroke="none" width="88.0" x="580.0" y="244" /><text fill="#2e7cf6" font-family="&quot;Segoe UI&quot;, Arial" font-size="16" font-weight="400" text-anchor="middle" x="624.0" y="277.0">15</text><rect fill="#d9e7ff" height="56" rx="14" ry="14" stroke="none" width="88.0" x="52.0" y="300" /><text fill="#2e7cf6" font-family="&quot;Segoe UI&quot;, Arial" font-size="16" font-weight="400" text-anchor="middle" x="96.0" y="333.0">16</text><rect fill="#d9e7ff" height="56" rx="14" ry="14" stroke="none" width="88.0" x="140.0" y="300" /><text fill="#1b1b1f" font-family="&quot;Segoe UI&quot;, Arial" font-size="16" font-weight="400" text-anchor="middle" x="184.0" y="333.0">17</text><rect fill="#d9e7ff" height="56" rx="14" ry="14" stroke="none" width="88.0" x="228.0" y="300" /><text fill="#1b1b1f" font-family="&quot;Segoe UI&quot;, Arial" font-size="16" font-weight="400" text-anchor="middle" x="272.0" y="333.0">18</text><rect fill="#d9e7ff" height="56" rx="14" ry="14" stroke="none" width="88.0" x="316.0" y="300" /><text fill="#1b1b1f" font-family="&quot;Segoe UI&quot;, Arial" font-size="16" font-weight="400" text-anchor="middle" x="360.0" y="333.0">19</text><circle cx="360.0" cy="346" fill="#f97316" r="4" /><rect fill="#d9e7ff" height="56" rx="14" ry="14" stroke="none" width="88.0" x="404.0" y="300" /><text fill="#1b1b1f" font-family="&quot;Segoe UI&quot;, Arial" font-size="16" font-weight="400" text-anchor="middle" x="448.0" y="333.0">20</text><rect fill="#d9e7ff" height="56" rx="14" ry="14" stroke="none" width="88.0" x="492.0" y="300" /><text fill="#1b1b1f" font-family="&quot;Segoe UI&quot;, Arial" font-size="16" font-weight="400" text-anchor="middle" x="536.0" y="333.0">21</text><rect fill="#d9e7ff" height="56" rx="14" ry="14" stroke="none" width="88.0" x="580.0" y="300" /><text fill="#2e7cf6" font-family="&quot;Segoe UI&quot;, Arial" font-size="16" font-weight="400" text-anchor="middle" x="624.0" y="333.0">22</text><rect fill="#d9e7ff" height="56" rx="14" ry="14" stroke="none" width="88.0" x="52.0" y="356" /><text fill="#2e7cf6" font-family="&quot;Segoe UI&quot;, Arial" font-size="16" font-weight="400" text-anchor="middle" x="96.0" y="389.0">23</text><rect fill="#d9e7ff" height="56" rx="14" ry="14" stroke="none" width="88.0" x="140.0" y="356" /><text fill="#1b1b1f" font-family="&quot;Segoe UI&quot;, Arial" font-size="16" font-weight="400" text-anchor="middle" x="184.0" y="389.0">24</text><rect fill="#d9e7ff" height="56" rx="14" ry="14" stroke="none" width="88.0" x="228.0" y="356" /><text fill="#1b1b1f" font-family="&quot;Segoe UI&quot;, Arial" font-size="16" font-weight="400" text-anchor="middle" x="272.0" y="389.0">25</text><rect fill="#d9e7ff" height="56" rx="14" ry="14" stroke="none" width="88.0" x="316.0" y="356" /><text fill="#1b1b1f" font-family="&quot;Segoe UI&quot;, Arial" font-size="16" font-weight="400" text-anchor="middle" x="360.0" y="389.0">26</text><rect fill="#d9e7ff" height="56" rx="14" ry="14" stroke="none" width="88.0" x="404.0" y="356" /><text fill="#1b1b1f" font-family="&quot;Segoe UI&quot;, Arial" font-size="16" font-weight="400" text-anchor="middle" x="448.0" y="389.0">27</text><rect fill="#d9e7ff" height="56" rx="14" ry="14" stroke="none" width="88.0" x="492.0" y="356" /><text fill="#1b1b1f" font-family="&quot;Segoe UI&quot;, Arial" font-size="16" font-weight="400" text-anchor="middle" x="536.0" y="389.0">28</text><rect fill="#d9e7ff" height="56" rx="14" ry="14" stroke="none" width="88.0" x="580.0" y="356" /><text fill="#2e7cf6" font-family="&quot;Segoe UI&quot;, Arial" font-size="16" font-weight="400" text-anchor="middle" x="624.0" y="389.0">29</text><rect fill="#2e7cf6" height="56" rx="14" ry="14" stroke="none" width="88.0" x="52.0" y="412" /><text fill="#ffffff" font-family="&quot;Segoe UI&quot;, Arial" font-size="16" font-weight="400" text-anchor="middle" x="96.0" y="445.0">30</text><rect fill="#ffffff" height="56" rx="14" ry="14" stroke="none" width="88.0" x="140.0" y="412" /><text fill="#9ca3af" font-family="&quot;Segoe UI&quot;, Arial" font-size="16" font-weight="400" text-anchor="middle" x="184.0" y="445.0">1</text><rect fill="#ffffff" height="56" rx="14" ry="14" stroke="none" width="88.0" x="228.0" y="412" /><text fill="#9ca3af" font-family="&quot;Segoe UI&quot;, Arial" font-size="16" font-weight="400" text-anchor="middle" x="272.0" y="445.0">2</text><rect fill="#ffffff" height="56" rx="14" ry="14" stroke="none" width="88.0" x="316.0" y="412" /><text fill="#9ca3af" font-family="&quot;Segoe UI&quot;, Arial" font-size="16" font-weight="400" text-anchor="middle" x="360.0" y="445.0">3</text><rect fill="#ffffff" height="56" rx="14" ry="14" stroke="none" width="88.0" x="404.0" y="412" /><text fill="#9ca3af" font-family="&quot;Segoe UI&quot;, Arial" font-size="16" font-weight="400" text-anchor="middle" x="448.0" y="445.0">4</text><rect fill="#ffffff" height="56" rx="14" ry="14" stroke="none" width="88.0" x="492.0" y="412" /><text fill="#9ca3af" font-family="&quot;Segoe UI&quot;, Arial" font-size="16" font-weight="400" text-anchor="middle" x="536.0" y="445.0">5</text><rect fill="#e8f1ff" height="56" rx="14" ry="14" stroke="none" width="88.0" x="580.0" y="412" /><text fill="#2e7cf6" font-family="&quot;Segoe UI&quot;, Arial" font-size="16" font-weight="400" text-anchor="middle" x="624.0" y="445.0">6</text><text fill="#4b5563" font-family="&quot;Segoe UI&quot;, Arial" font-size="15" x="56" y="464">Formatting pane toggles weekend tinting, holiday markers, and preset buttons.</text></svg>