<!--

File Created: Friday, 21st June 2024 3:16:02 pm
Author: John Osborn (john.osborn@tambla.com.au)

Last Modified: Friday, 21st June 2024 3:16:03 pm
Modified By: John Osborn (john.osborn@tambla.com.au>)

Copyright - 2024, TamblaWFM Pty Ltd

   Usage:


-->

<?xml version="1.0" encoding="utf-8"?>
<svg viewBox="0 0 2915 382" xmlns="http://www.w3.org/2000/svg" xmlns:bx="https://boxy-svg.com">
  <path fill="#A6A6A6" opacity="1.000000" stroke="none" d="M 3.607 184.398 C 7.075 184.95 9.156 187.123 8.067 189.287 C 6.467 187.754 5.129 186.202 3.607 184.398 Z" transform="matrix(1, 0, 0, 1, 0, 1.4210854715202004e-14)"/>
  <path fill="#A6A6A6" opacity="1.000000" stroke="none" d="M 177.217 141.304 C 176.959 141.199 176.95 140.985 176.952 140.45 C 177.13 140.484 177.298 140.839 177.217 141.304 Z" transform="matrix(1, 0, 0, 1, 0, 1.4210854715202004e-14)"/>
  <path opacity="1.000000" stroke="none" d="M 880.455 349.663 C 871.408 341.82 865.811 332.419 864.884 320.141 C 865.477 307.483 870.5 297.381 879.88 289.033 C 883.046 287.349 885.986 285.836 889.032 284.581 C 900.475 279.866 911.377 281.347 921.825 287.624 C 922.527 288.047 923.337 288.291 924.62 288.968 C 927.446 291.725 930.148 293.869 931.946 296.607 C 934.049 299.809 936.539 300.767 940.239 300.782 C 995.693 301.014 1051.146 301.421 1106.6 301.699 C 1181.881 302.075 1257.162 302.405 1332.443 302.702 C 1425.052 303.067 1517.662 303.386 1610.271 303.704 C 1626.932 303.761 1643.595 303.62 1660.256 303.732 C 1701.047 304.005 1741.838 304.501 1782.63 304.666 C 1825.45 304.84 1868.271 304.749 1911.091 304.686 C 1912.599 304.684 1914.735 304.2 1915.509 303.152 C 1920.168 296.833 1926.219 292.338 1933.06 288.744 C 1942.038 285.872 1951.018 286.054 1960.395 288.739 C 1965.933 293.003 1971.887 296.61 1975.97 301.715 C 1979.62 306.277 1981.206 312.491 1983.781 318.769 C 1983.923 321.273 1983.987 322.983 1984.051 324.693 C 1984.039 324.867 1984.027 325.041 1983.974 325.885 C 1983.11 335.38 1979.141 342.817 1973.755 349.629 C 1962.05 360.418 1948.53 363.884 1933.488 358.459 C 1928.52 356.667 1924.291 352.829 1919.329 349.427 C 1916.68 345.996 1915.185 342.593 1910.329 342.572 C 1883.698 342.454 1857.07 341.887 1830.44 341.741 C 1754.992 341.329 1679.543 341.047 1604.094 340.713 C 1528.978 340.381 1453.863 340.041 1378.747 339.716 C 1299.633 339.374 1220.518 339.034 1141.404 338.723 C 1124.075 338.655 1106.747 338.718 1089.418 338.709 C 1039.599 338.681 989.78 338.63 939.961 338.674 C 937.762 338.676 934.988 338.838 933.482 340.11 C 930.216 342.869 927.597 346.395 924.714 349.608 C 921.581 351.06 918.496 352.629 915.306 353.945 C 904.01 358.606 893.305 356.917 883.053 350.758 C 882.349 350.335 881.551 350.069 880.455 349.663 Z" fill="#D9D9D9" transform="matrix(1, 0, 0, 1, 0, 1.4210854715202004e-14)"/>
  <path fill="#A0A0A0" opacity="1.000000" stroke="none" d="M 1984.509 324.698 C 1983.987 322.983 1983.923 321.273 1983.874 319.135 C 2263.688 318.709 2543.487 318.71 2823.286 318.719 C 2825.45 318.719 2827.739 318.402 2829.732 319.009 C 2830.94 319.377 2831.692 321.241 2832.648 322.433 C 2831.553 323.184 2830.538 324.131 2829.336 324.619 C 2828.474 324.968 2827.363 324.712 2826.363 324.712 C 2545.897 324.71 2265.432 324.707 1984.509 324.698 Z" transform="matrix(1, 0, 0, 1, 0, 1.4210854715202004e-14)"/>
  <path fill="#A6A6A6" opacity="1.000000" stroke="none" d="M 137.917 320.733 C 379.562 320.733 620.707 320.733 861.852 320.733 C 861.852 319.352 861.852 317.97 861.852 316.589 C 592.166 316.589 322.48 316.589 52.794 316.589 C 52.793 317.97 52.791 319.352 52.79 320.733 C 80.999 320.733 109.208 320.733 137.917 320.733 Z" style="" transform="matrix(1, 0, 0, 1, 0, 1.4210854715202004e-14)"/>
  <path fill="#A6A6A6" opacity="1.000000" stroke="none" d="M 48.41 325.202 C 48.431 325.194 48.39 325.21 48.41 325.202 Z" transform="matrix(1, 0, 0, 1, 0, 1.4210854715202004e-14)"/>
  <ellipse style="fill: rgb(216, 216, 216);" cx="78.323" cy="60.828" rx="31.408" ry="28.625" transform="matrix(1, 0, 0, 1, 0, 1.4210854715202004e-14)"/>
  <path d="M 190.877 32.203 H 864.364 A 5.964 5.964 0 0 1 870.328 38.167 V 222.64 A 5.964 5.964 0 0 1 864.364 228.604 H 190.877 A 5.964 5.964 0 0 1 184.913 222.64 V 38.167 A 5.964 5.964 0 0 1 190.877 32.203 Z M 196.84 44.131 V 216.677 A 0.001 0.001 0 0 0 196.841 216.677 H 858.401 A 0.001 0.001 0 0 0 858.401 216.677 V 44.131 A 0.001 0.001 0 0 0 858.401 44.13 H 196.841 A 0.001 0.001 0 0 0 196.84 44.131 Z" style="fill: rgb(217, 217, 217);" transform="matrix(1, 0, 0, 1, 0, 1.4210854715202004e-14)" bx:shape="frame 184.913 32.203 685.415 196.401 11.927 11.927 5.964 5.964 5.964 5.964 1@e726a87c"/>
  <ellipse style="fill: rgb(216, 216, 216);" cx="79.118" cy="127.62" rx="31.408" ry="28.625" transform="matrix(1, 0, 0, 1, 0, 1.4210854715202004e-14)"/>
  <ellipse style="fill: rgb(216, 216, 216);" cx="78.323" cy="196.002" rx="31.408" ry="28.625" transform="matrix(1, 0, 0, 1, 0, 1.4210854715202004e-14)"/>
  <path d="M 900.146 32.601 H 1573.633 A 5.964 5.964 0 0 1 1579.597 38.565 V 223.038 A 5.964 5.964 0 0 1 1573.633 229.002 H 900.146 A 5.964 5.964 0 0 1 894.182 223.038 V 38.565 A 5.964 5.964 0 0 1 900.146 32.601 Z M 906.109 44.529 V 217.075 A 0.001 0.001 0 0 0 906.11 217.075 H 1567.67 A 0.001 0.001 0 0 0 1567.67 217.075 V 44.529 A 0.001 0.001 0 0 0 1567.67 44.528 H 906.11 A 0.001 0.001 0 0 0 906.109 44.529 Z" style="fill: rgb(216, 216, 216);" transform="matrix(1, 0, 0, 1, 0, 1.4210854715202004e-14)" bx:shape="frame 894.182 32.601 685.415 196.401 11.927 11.927 5.964 5.964 5.964 5.964 1@8ace8039"/>
  <path d="M 3458.466 142.957 L 3531.202 266.217 L 3385.73 266.217 L 3458.466 142.957 Z" style="fill: rgb(216, 216, 216);" transform="matrix(0.8649410009384154, 0.5018729567527771, -0.5018729567527771, 0.8649410009384154, -1164.7803081506572, -1808.866264845914)" bx:shape="triangle 3385.73 142.957 145.472 123.26 0.5 0 1@17eb1b3c"/>
  <path d="M 2063.353 9.653 L 2139.9 134.435 L 1986.806 134.435 L 2063.353 9.653 Z" style="fill: rgb(216, 216, 216);" transform="matrix(0.8451769948005676, -0.5344859957695007, 0.5344859957695007, 0.8451769948005676, 382.34840006674494, 1152.2950782863809)" bx:shape="triangle 1986.806 9.653 153.094 124.782 0.5 0 1@a7723f30"/>
  <path d="M 1946.513 -21.47 H 2089.641 A 17.891 17.891 0 0 1 2107.532 -3.579 V 139.549 A 17.891 17.891 0 0 1 2089.641 157.44 H 1946.513 A 17.891 17.891 0 0 1 1928.622 139.549 V -3.579 A 17.891 17.891 0 0 1 1946.513 -21.47 Z M 1940.549 2.384 V 133.585 A 11.927 11.927 0 0 0 1952.477 145.513 H 2083.678 A 11.927 11.927 0 0 0 2095.605 133.585 V 2.384 A 11.927 11.927 0 0 0 2083.678 -9.543 H 1952.477 A 11.927 11.927 0 0 0 1940.549 2.384 Z" style="fill: rgb(217, 217, 217);" transform="matrix(0.9999899864196777, -0.004444999620318413, 0.004444999620318413, 0.9999899864196777, -67.43112383577589, 72.5817053491385)" bx:shape="frame 1928.622 -21.47 178.91 178.91 11.927 11.927 17.891 17.891 17.891 17.891 1@03ab703e"/>
  <path d="M 1946.513 -21.47 H 2089.641 A 17.891 17.891 0 0 1 2107.532 -3.579 V 139.549 A 17.891 17.891 0 0 1 2089.641 157.44 H 1946.513 A 17.891 17.891 0 0 1 1928.622 139.549 V -3.579 A 17.891 17.891 0 0 1 1946.513 -21.47 Z M 1940.549 2.384 V 133.585 A 11.927 11.927 0 0 0 1952.477 145.513 H 2083.678 A 11.927 11.927 0 0 0 2095.605 133.585 V 2.384 A 11.927 11.927 0 0 0 2083.678 -9.543 H 1952.477 A 11.927 11.927 0 0 0 1940.549 2.384 Z" style="fill: rgb(217, 217, 217);" transform="matrix(0.9999899864196777, -0.004444999620318413, 0.004444999620318413, 0.9999899864196777, 366.7177843665413, 67.81084644230737)" bx:shape="frame 1928.622 -21.47 178.91 178.91 11.927 11.927 17.891 17.891 17.891 17.891 1@03ab703e"/>
  <path d="M 1946.513 -21.47 H 2089.641 A 17.891 17.891 0 0 1 2107.532 -3.579 V 139.549 A 17.891 17.891 0 0 1 2089.641 157.44 H 1946.513 A 17.891 17.891 0 0 1 1928.622 139.549 V -3.579 A 17.891 17.891 0 0 1 1946.513 -21.47 Z M 1940.549 2.384 V 133.585 A 11.927 11.927 0 0 0 1952.477 145.513 H 2083.678 A 11.927 11.927 0 0 0 2095.605 133.585 V 2.384 A 11.927 11.927 0 0 0 2083.678 -9.543 H 1952.477 A 11.927 11.927 0 0 0 1940.549 2.384 Z" style="fill: rgb(217, 217, 217);" transform="matrix(0.9999899864196777, -0.004444999620318413, 0.004444999620318413, 0.9999899864196777, 575.0458545400452, 65.42541698889181)" bx:shape="frame 1928.622 -21.47 178.91 178.91 11.927 11.927 17.891 17.891 17.891 17.891 1@03ab703e"/>
  <path d="M 1946.513 -21.47 H 2089.641 A 17.891 17.891 0 0 1 2107.532 -3.579 V 139.549 A 17.891 17.891 0 0 1 2089.641 157.44 H 1946.513 A 17.891 17.891 0 0 1 1928.622 139.549 V -3.579 A 17.891 17.891 0 0 1 1946.513 -21.47 Z M 1940.549 2.384 V 133.585 A 11.927 11.927 0 0 0 1952.477 145.513 H 2083.678 A 11.927 11.927 0 0 0 2095.605 133.585 V 2.384 A 11.927 11.927 0 0 0 2083.678 -9.543 H 1952.477 A 11.927 11.927 0 0 0 1940.549 2.384 Z" style="fill: rgb(217, 217, 217);" transform="matrix(0.9999899864196777, -0.004444999620318413, 0.004444999620318413, 0.9999899864196777, 776.2178576057505, 63.03998753547626)" bx:shape="frame 1928.622 -21.47 178.91 178.91 11.927 11.927 17.891 17.891 17.891 17.891 1@03ab703e"/>
</svg>